<?xml version="1.0" encoding="UTF-8" standalone="no"?>
<!-- Created with Inkscape (http://www.inkscape.org/) -->

<svg
   version="1.1"
   id="svg1"
   width="400"
   height="247.21333"
   viewBox="0 0 400 247.21333"
   sodipodi:docname="test.ai"
   xmlns:inkscape="http://www.inkscape.org/namespaces/inkscape"
   xmlns:sodipodi="http://sodipodi.sourceforge.net/DTD/sodipodi-0.dtd"
   xmlns="http://www.w3.org/2000/svg"
   xmlns:svg="http://www.w3.org/2000/svg">
  <defs
     id="defs1">
    <clipPath
       clipPathUnits="userSpaceOnUse"
       id="clipPath2">
      <path
         d="M 0,185.41 H 300 V 0 H 0 Z"
         transform="translate(-81.000002,-37.080003)"
         id="path2" />
    </clipPath>
    <clipPath
       clipPathUnits="userSpaceOnUse"
       id="clipPath3">
      <path
         d="m 86.46,74.16 h 37.08 V 37.08 H 86.46 Z"
         transform="translate(-105,-37.080003)"
         id="path3" />
    </clipPath>
    <clipPath
       clipPathUnits="userSpaceOnUse"
       id="clipPath5">
      <path
         d="M 0,185.41 H 300 V 0 H 0 Z"
         transform="matrix(1.3333333,0,0,-1.3333333,0,247.21333)"
         id="path5" />
    </clipPath>
    <clipPath
       clipPathUnits="userSpaceOnUse"
       id="clipPath7">
      <path
         d="M 0,185.41 H 300 V 0 H 0 Z"
         transform="translate(-105,-37.080003)"
         id="path7" />
    </clipPath>
    <clipPath
       clipPathUnits="userSpaceOnUse"
       id="clipPath9">
      <path
         d="M 0,185.41 H 300 V 0 H 0 Z"
         transform="translate(-219.00001,-37.080003)"
         id="path9" />
    </clipPath>
    <clipPath
       clipPathUnits="userSpaceOnUse"
       id="clipPath10">
      <path
         d="m 176.46,74.16 h 37.08 V 37.08 h -37.08 z"
         transform="translate(-195,-37.080003)"
         id="path10" />
    </clipPath>
    <clipPath
       clipPathUnits="userSpaceOnUse"
       id="clipPath12">
      <path
         d="M 0,185.41 H 300 V 0 H 0 Z"
         transform="matrix(1.3333333,0,0,-1.3333333,0,247.21333)"
         id="path12" />
    </clipPath>
    <clipPath
       clipPathUnits="userSpaceOnUse"
       id="clipPath14">
      <path
         d="M 0,185.41 H 300 V 0 H 0 Z"
         transform="translate(-195,-37.080003)"
         id="path14" />
    </clipPath>
    <clipPath
       clipPathUnits="userSpaceOnUse"
       id="clipPath16">
      <path
         d="M 0,185.41 H 300 V 0 H 0 Z"
         transform="translate(-81.000002,-111.25)"
         id="path16" />
    </clipPath>
    <clipPath
       clipPathUnits="userSpaceOnUse"
       id="clipPath18">
      <path
         d="M 0,185.41 H 300 V 0 H 0 Z"
         transform="translate(-105,-111.25)"
         id="path18" />
    </clipPath>
    <clipPath
       clipPathUnits="userSpaceOnUse"
       id="clipPath19">
      <path
         d="m 86.46,148.33 h 37.08 V 111.25 H 86.46 Z"
         transform="translate(-105,-111.25)"
         id="path19" />
    </clipPath>
    <clipPath
       clipPathUnits="userSpaceOnUse"
       id="clipPath21">
      <path
         d="M 0,185.41 H 300 V 0 H 0 Z"
         transform="matrix(1.3333333,0,0,-1.3333333,0,247.21333)"
         id="path21" />
    </clipPath>
    <clipPath
       clipPathUnits="userSpaceOnUse"
       id="clipPath23">
      <path
         d="M 0,185.41 H 300 V 0 H 0 Z"
         transform="translate(-105,-111.25)"
         id="path23" />
    </clipPath>
    <clipPath
       clipPathUnits="userSpaceOnUse"
       id="clipPath24">
      <path
         d="M 62.46,148.33 H 99.54 V 111.25 H 62.46 Z"
         transform="translate(-81.000002,-111.25)"
         id="path24" />
    </clipPath>
    <clipPath
       clipPathUnits="userSpaceOnUse"
       id="clipPath26">
      <path
         d="M 0,185.41 H 300 V 0 H 0 Z"
         transform="matrix(1.3333333,0,0,-1.3333333,0,247.21333)"
         id="path26" />
    </clipPath>
    <clipPath
       clipPathUnits="userSpaceOnUse"
       id="clipPath28">
      <path
         d="M 0,185.41 H 300 V 0 H 0 Z"
         transform="translate(-81.000002,-111.25)"
         id="path28" />
    </clipPath>
    <clipPath
       clipPathUnits="userSpaceOnUse"
       id="clipPath29">
      <path
         d="m 200.085,148.33 h 37.08 v -37.08 h -37.08 z"
         transform="translate(-218.62501,-111.25)"
         id="path29" />
    </clipPath>
    <clipPath
       clipPathUnits="userSpaceOnUse"
       id="clipPath31">
      <path
         d="M 0,185.41 H 300 V 0 H 0 Z"
         transform="matrix(1.3333333,0,0,-1.3333333,0,247.21333)"
         id="path31" />
    </clipPath>
    <clipPath
       clipPathUnits="userSpaceOnUse"
       id="clipPath33">
      <path
         d="M 0,185.41 H 300 V 0 H 0 Z"
         transform="translate(-218.62501,-111.25)"
         id="path33" />
    </clipPath>
    <clipPath
       clipPathUnits="userSpaceOnUse"
       id="clipPath34">
      <path
         d="m 176.085,148.33 h 37.08 v -37.08 h -37.08 z"
         transform="translate(-194.625,-111.25)"
         id="path34" />
    </clipPath>
    <clipPath
       clipPathUnits="userSpaceOnUse"
       id="clipPath36">
      <path
         d="M 0,185.41 H 300 V 0 H 0 Z"
         transform="matrix(1.3333333,0,0,-1.3333333,0,247.21333)"
         id="path36" />
    </clipPath>
    <clipPath
       clipPathUnits="userSpaceOnUse"
       id="clipPath38">
      <path
         d="M 0,185.41 H 300 V 0 H 0 Z"
         transform="translate(-194.625,-111.25)"
         id="path38" />
    </clipPath>
    <clipPath
       clipPathUnits="userSpaceOnUse"
       id="clipPath40">
      <path
         d="M 0,185.41 H 300 V 0 H 0 Z"
         transform="translate(-200.08501,-129.79)"
         id="path40" />
    </clipPath>
  </defs>
  <sodipodi:namedview
     id="namedview1"
     pagecolor="#ffffff"
     bordercolor="#000000"
     borderopacity="0.25"
     inkscape:showpageshadow="2"
     inkscape:pageopacity="0.0"
     inkscape:pagecheckerboard="0"
     inkscape:deskcolor="#d1d1d1">
    <inkscape:page
       x="0"
       y="0"
       inkscape:label="1"
       id="page1"
       width="400"
       height="247.21333"
       margin="48.939999 82.779999"
       bleed="0" />
  </sodipodi:namedview>
  <g
     id="layer-MC0"
     inkscape:groupmode="layer"
     inkscape:label="Layer 1">
    <path
       id="path1"
       d="M 0,0 C 10.239,0 18.54,8.301 18.54,18.54 18.54,28.779 10.239,37.08 0,37.08 -10.239,37.08 -18.54,28.779 -18.54,18.54 -18.54,8.301 -10.239,0 0,0"
       style="fill:#1e90ff;fill-opacity:1;fill-rule:nonzero;stroke:#000000;stroke-width:0.75;stroke-linecap:round;stroke-linejoin:round;stroke-miterlimit:10;stroke-dasharray:none;stroke-opacity:1"
       transform="matrix(1.3333333,0,0,-1.3333333,108,197.77333)"
       clip-path="url(#clipPath2)" />
    <g
       opacity="0"
       id="g4"
       clip-path="url(#clipPath5)">
      <path
         d="M 0,0 C 10.239,0 18.54,8.301 18.54,18.54 18.54,28.779 10.239,37.08 0,37.08 -10.239,37.08 -18.54,28.779 -18.54,18.54 -18.54,8.301 -10.239,0 0,0"
         style="fill:#ffffff;fill-opacity:1;fill-rule:nonzero;stroke:none"
         transform="matrix(1.3333333,0,0,-1.3333333,140,197.77333)"
         clip-path="url(#clipPath3)"
         id="path4" />
    </g>
    <path
       id="path6"
       d="M 0,0 C 10.239,0 18.54,8.301 18.54,18.54 18.54,28.779 10.239,37.08 0,37.08 -10.239,37.08 -18.54,28.779 -18.54,18.54 -18.54,8.301 -10.239,0 0,0 Z"
       style="fill:none;stroke:#000000;stroke-width:0.75;stroke-linecap:round;stroke-linejoin:round;stroke-miterlimit:10;stroke-dasharray:none;stroke-opacity:1"
       transform="matrix(1.3333333,0,0,-1.3333333,140,197.77333)"
       clip-path="url(#clipPath7)" />
    <path
       id="path8"
       d="M 0,0 C 10.239,0 18.54,8.301 18.54,18.54 18.54,28.779 10.239,37.08 0,37.08 -10.239,37.08 -18.54,28.779 -18.54,18.54 -18.54,8.301 -10.239,0 0,0"
       style="fill:#1e90ff;fill-opacity:1;fill-rule:nonzero;stroke:#000000;stroke-width:0.75;stroke-linecap:round;stroke-linejoin:round;stroke-miterlimit:10;stroke-dasharray:none;stroke-opacity:1"
       transform="matrix(1.3333333,0,0,-1.3333333,292,197.77333)"
       clip-path="url(#clipPath9)" />
    <g
       opacity="0"
       id="g11"
       clip-path="url(#clipPath12)">
      <path
         d="M 0,0 C 10.239,0 18.54,8.301 18.54,18.54 18.54,28.779 10.239,37.08 0,37.08 -10.239,37.08 -18.54,28.779 -18.54,18.54 -18.54,8.301 -10.239,0 0,0"
         style="fill:#ffffff;fill-opacity:1;fill-rule:nonzero;stroke:none"
         transform="matrix(1.3333333,0,0,-1.3333333,260,197.77333)"
         clip-path="url(#clipPath10)"
         id="path11" />
    </g>
    <path
       id="path13"
       d="M 0,0 C 10.239,0 18.54,8.301 18.54,18.54 18.54,28.779 10.239,37.08 0,37.08 -10.239,37.08 -18.54,28.779 -18.54,18.54 -18.54,8.301 -10.239,0 0,0 Z"
       style="fill:none;stroke:#000000;stroke-width:0.75;stroke-linecap:round;stroke-linejoin:round;stroke-miterlimit:10;stroke-dasharray:none;stroke-opacity:1"
       transform="matrix(1.3333333,0,0,-1.3333333,260,197.77333)"
       clip-path="url(#clipPath14)" />
    <path
       id="path15"
       d="M 0,0 C 10.239,0 18.54,8.301 18.54,18.54 18.54,28.779 10.239,37.08 0,37.08 -10.239,37.08 -18.54,28.779 -18.54,18.54 -18.54,8.301 -10.239,0 0,0"
       style="fill:#1e90ff;fill-opacity:1;fill-rule:nonzero;stroke:#000000;stroke-width:0.75;stroke-linecap:round;stroke-linejoin:round;stroke-miterlimit:10;stroke-dasharray:none;stroke-opacity:1"
       transform="matrix(1.3333333,0,0,-1.3333333,108,98.88)"
       clip-path="url(#clipPath16)" />
    <path
       id="path17"
       d="M 0,0 C 10.239,0 18.54,8.301 18.54,18.54 18.54,28.779 10.239,37.08 0,37.08 -10.239,37.08 -18.54,28.779 -18.54,18.54 -18.54,8.301 -10.239,0 0,0"
       style="fill:#1e90ff;fill-opacity:1;fill-rule:nonzero;stroke:#000000;stroke-width:0.75;stroke-linecap:round;stroke-linejoin:round;stroke-miterlimit:10;stroke-dasharray:none;stroke-opacity:1"
       transform="matrix(1.3333333,0,0,-1.3333333,140,98.88)"
       clip-path="url(#clipPath18)" />
    <g
       opacity="0"
       id="g20"
       clip-path="url(#clipPath21)">
      <path
         d="M 0,0 C 10.239,0 18.54,8.301 18.54,18.54 18.54,28.779 10.239,37.08 0,37.08 -10.239,37.08 -18.54,28.779 -18.54,18.54 -18.54,8.301 -10.239,0 0,0"
         style="fill:#ffffff;fill-opacity:1;fill-rule:nonzero;stroke:none"
         transform="matrix(1.3333333,0,0,-1.3333333,140,98.88)"
         clip-path="url(#clipPath19)"
         id="path20" />
    </g>
    <path
       id="path22"
       d="M 0,0 C 10.239,0 18.54,8.301 18.54,18.54 18.54,28.779 10.239,37.08 0,37.08 -10.239,37.08 -18.54,28.779 -18.54,18.54 -18.54,8.301 -10.239,0 0,0 Z"
       style="fill:none;stroke:#000000;stroke-width:0.75;stroke-linecap:round;stroke-linejoin:round;stroke-miterlimit:10;stroke-dasharray:none;stroke-opacity:1"
       transform="matrix(1.3333333,0,0,-1.3333333,140,98.88)"
       clip-path="url(#clipPath23)" />
    <g
       opacity="0"
       id="g25"
       clip-path="url(#clipPath26)">
      <path
         d="M 0,0 C 10.239,0 18.54,8.301 18.54,18.54 18.54,28.779 10.239,37.08 0,37.08 -10.239,37.08 -18.54,28.779 -18.54,18.54 -18.54,8.301 -10.239,0 0,0"
         style="fill:#ffffff;fill-opacity:1;fill-rule:nonzero;stroke:none"
         transform="matrix(1.3333333,0,0,-1.3333333,108,98.88)"
         clip-path="url(#clipPath24)"
         id="path25" />
    </g>
    <path
       id="path27"
       d="M 0,0 C 10.239,0 18.54,8.301 18.54,18.54 18.54,28.779 10.239,37.08 0,37.08 -10.239,37.08 -18.54,28.779 -18.54,18.54 -18.54,8.301 -10.239,0 0,0 Z"
       style="fill:none;stroke:#000000;stroke-width:0.75;stroke-linecap:round;stroke-linejoin:round;stroke-miterlimit:10;stroke-dasharray:none;stroke-opacity:1"
       transform="matrix(1.3333333,0,0,-1.3333333,108,98.88)"
       clip-path="url(#clipPath28)" />
    <g
       opacity="0"
       id="g30"
       clip-path="url(#clipPath31)">
      <path
         d="M 0,0 C 10.239,0 18.54,8.301 18.54,18.54 18.54,28.779 10.239,37.08 0,37.08 -10.239,37.08 -18.54,28.779 -18.54,18.54 -18.54,8.301 -10.239,0 0,0"
         style="fill:#ffffff;fill-opacity:1;fill-rule:nonzero;stroke:none"
         transform="matrix(1.3333333,0,0,-1.3333333,291.5,98.88)"
         clip-path="url(#clipPath29)"
         id="path30" />
    </g>
    <path
       id="path32"
       d="M 0,0 C 10.239,0 18.54,8.301 18.54,18.54 18.54,28.779 10.239,37.08 0,37.08 -10.239,37.08 -18.54,28.779 -18.54,18.54 -18.54,8.301 -10.239,0 0,0 Z"
       style="fill:none;stroke:#000000;stroke-width:0.75;stroke-linecap:round;stroke-linejoin:round;stroke-miterlimit:10;stroke-dasharray:none;stroke-opacity:1"
       transform="matrix(1.3333333,0,0,-1.3333333,291.5,98.88)"
       clip-path="url(#clipPath33)" />
    <g
       opacity="0"
       id="g35"
       clip-path="url(#clipPath36)">
      <path
         d="M 0,0 C 10.239,0 18.54,8.301 18.54,18.54 18.54,28.779 10.239,37.08 0,37.08 -10.239,37.08 -18.54,28.779 -18.54,18.54 -18.54,8.301 -10.239,0 0,0"
         style="fill:#ffffff;fill-opacity:1;fill-rule:nonzero;stroke:none"
         transform="matrix(1.3333333,0,0,-1.3333333,259.5,98.88)"
         clip-path="url(#clipPath34)"
         id="path35" />
    </g>
    <path
       id="path37"
       d="M 0,0 C 10.239,0 18.54,8.301 18.54,18.54 18.54,28.779 10.239,37.08 0,37.08 -10.239,37.08 -18.54,28.779 -18.54,18.54 -18.54,8.301 -10.239,0 0,0 Z"
       style="fill:none;stroke:#000000;stroke-width:0.75;stroke-linecap:round;stroke-linejoin:round;stroke-miterlimit:10;stroke-dasharray:none;stroke-opacity:1"
       transform="matrix(1.3333333,0,0,-1.3333333,259.5,98.88)"
       clip-path="url(#clipPath38)" />
    <path
       id="path39"
       d="m 0,0 c 0,-5.659 2.543,-10.718 6.54,-14.118 3.997,3.4 6.54,8.459 6.54,14.118 0,5.659 -2.543,10.718 -6.54,14.118 C 2.543,10.718 0,5.659 0,0"
       style="fill:#1d90ff;fill-opacity:1;fill-rule:nonzero;stroke:#000000;stroke-width:0.75;stroke-linecap:round;stroke-linejoin:round;stroke-miterlimit:10;stroke-dasharray:none;stroke-opacity:1"
       transform="matrix(1.3333333,0,0,-1.3333333,266.78,74.16)"
       clip-path="url(#clipPath40)" />
  </g>
</svg>
